<?xml version="1.0" standalone="no"?>
<!DOCTYPE svg PUBLIC "-//W3C//DTD SVG 20010904//EN"
 "http://www.w3.org/TR/2001/REC-SVG-20010904/DTD/svg10.dtd">
<svg version="1.0" xmlns="http://www.w3.org/2000/svg"
 width="200.000000pt" height="100.000000pt" viewBox="0 0 200.000000 100.000000"
 preserveAspectRatio="xMidYMid meet">
<metadata>
Created by potrace 1.16, written by Peter Selinger 2001-2019
</metadata>
<g transform="translate(0.000000,100.000000) scale(0.047619,-0.066667)"
fill="#000000" stroke="none">
<path d="M1330 1395 c0 -19 5 -35 10 -35 6 0 10 -10 10 -23 0 -13 5 -28 12
-35 6 -6 10 -13 7 -16 -2 -2 -78 -9 -169 -15 -91 -6 -199 -15 -240 -19 l-75
-7 3 -35 c2 -19 8 -39 13 -45 8 -8 13 -43 7 -46 -2 -1 -55 -5 -118 -9 -438
-30 -447 -32 -434 -94 3 -17 10 -35 15 -40 5 -6 9 -20 9 -32 0 -13 5 -26 10
-29 6 -3 10 -15 10 -26 0 -10 4 -27 9 -37 14 -29 61 -179 61 -196 0 -9 5 -16
10 -16 6 0 10 -11 10 -24 0 -14 5 -28 10 -31 6 -3 10 -19 10 -34 0 -15 4 -31
8 -36 5 -6 14 -30 21 -55 8 -28 25 -57 46 -75 18 -16 70 -64 116 -106 46 -42
97 -87 113 -100 15 -13 49 -43 75 -66 44 -41 48 -43 111 -42 67 0 173 19 186
32 4 4 20 7 36 7 15 0 36 4 46 9 9 5 53 17 97 26 44 10 90 21 103 26 13 5 32
9 43 9 10 0 27 4 37 9 21 11 152 41 180 41 12 0 24 5 27 10 3 6 21 10 40 10
19 0 36 4 39 9 3 5 20 11 38 14 77 13 157 33 164 40 4 4 20 7 36 7 15 0 36 4
46 9 9 5 44 15 77 23 57 13 60 16 63 46 3 29 1 32 -23 32 -14 0 -24 4 -21 8 2
4 -11 9 -31 10 -20 2 -43 7 -52 11 -9 5 -37 12 -64 16 -26 4 -50 11 -53 16 -3
5 -21 9 -40 9 -19 0 -34 4 -34 9 0 5 -17 11 -37 14 -53 7 -140 31 -149 40 -4
4 -22 7 -40 7 -18 0 -35 4 -38 9 -3 4 -23 11 -45 15 -31 5 -43 13 -55 38 -9
17 -16 39 -16 50 0 10 -4 18 -10 18 -5 0 -10 14 -10 31 0 17 -4 28 -10 24 -6
-3 -10 5 -10 19 0 14 -4 27 -9 30 -5 3 -11 17 -13 31 -4 20 -1 25 15 25 17 0
19 4 13 43 -4 23 -11 46 -17 51 -5 6 -9 18 -9 28 0 20 -26 105 -40 130 -6 10
-10 27 -10 37 0 11 -4 23 -10 26 -5 3 -10 17 -10 30 0 13 -4 27 -10 30 -24 15
-6 25 42 25 72 0 118 18 118 46 0 13 -4 26 -10 29 -5 3 -10 14 -10 24 0 21
-22 71 -32 71 -11 0 -10 -3 12 -71 12 -34 19 -63 17 -65 -2 -2 -35 -6 -74 -10
-39 -4 -76 -10 -82 -13 -7 -5 10 -70 50 -190 33 -101 58 -185 57 -186 -2 -1
-12 -5 -23 -9 -19 -5 -25 6 -64 111 -24 65 -49 124 -56 132 -13 13 -131 8
-367 -15 l-56 -6 -18 56 c-10 31 -16 58 -13 60 2 2 107 14 233 25 126 12 233
24 237 27 4 2 -2 31 -13 65 -11 33 -18 63 -15 66 3 3 21 9 39 13 31 8 31 8
-14 9 l-48 1 0 -35z m31 -355 c88 -224 169 -439 169 -448 0 -7 -4 -12 -9 -12
-5 0 -148 -24 -317 -54 -392 -68 -557 -96 -572 -96 -6 0 -29 55 -51 122 -23
68 -66 195 -96 283 -30 88 -53 165 -51 172 7 16 18 17 646 64 80 6 152 12 160
14 8 2 35 2 59 2 43 -2 45 -4 62 -47z m302 -634 c54 -17 97 -35 95 -41 -1 -5
-39 -18 -83 -27 -44 -9 -136 -30 -205 -46 -210 -51 -189 -52 -269 10 -70 53
-82 67 -58 69 6 0 95 17 197 39 102 21 194 35 205 32 11 -3 64 -19 118 -36z
m471 -4 c5 -9 -60 -26 -679 -177 -192 -47 -366 -90 -386 -95 -45 -12 -69 -13
-69 -1 0 5 134 41 298 81 163 40 410 101 547 136 263 66 281 69 289 56z"/>
<path d="M677 960 c-43 -4 -80 -10 -82 -12 -3 -3 112 -368 118 -375 1 -1 14 1
30 4 31 6 37 23 8 23 -27 0 -31 25 -31 187 0 159 -2 153 77 172 l38 9 -40 0
c-22 -1 -75 -4 -118 -8z"/>
<path d="M1558 1143 c-38 -3 -48 -8 -48 -22 0 -18 15 -70 30 -106 5 -11 10
-29 12 -40 3 -19 10 -20 93 -16 49 2 100 7 112 12 24 9 30 38 13 55 -5 5 -11
22 -12 36 -1 15 -6 24 -10 22 -4 -3 -8 8 -8 24 0 18 -6 32 -16 36 -16 6 -79 6
-166 -1z m178 -80 c15 -45 18 -65 10 -72 -6 -5 -47 -10 -91 -12 l-80 -4 -22
65 c-13 36 -23 68 -23 72 0 9 60 15 130 14 l54 -1 22 -62z"/>
<path d="M235 890 c-11 -5 -46 -9 -77 -9 l-58 -1 0 -37 c0 -47 26 -134 43
-145 11 -7 60 -5 165 8 40 5 42 7 42 40 0 19 -4 34 -10 34 -5 0 -10 16 -10 35
0 19 -4 35 -10 35 -5 0 -10 7 -10 15 0 14 -30 36 -47 34 -4 0 -17 -4 -28 -9z
m73 -82 c10 -35 16 -66 13 -70 -3 -4 -36 -10 -73 -14 -51 -5 -68 -4 -68 6 0 7
-7 10 -15 6 -8 -3 -15 -4 -15 -2 0 3 -3 12 -7 22 -4 12 -3 15 5 10 8 -5 12 0
12 13 0 11 -4 23 -10 26 -5 3 -10 1 -10 -6 0 -7 -2 -10 -5 -7 -10 10 8 40 29
48 20 8 20 9 -4 11 -27 2 43 15 97 17 30 2 32 0 51 -60z"/>
</g>
</svg>
